<svg xmlns="http://www.w3.org/2000/svg" width="920" height="520" viewBox="0 0 920 520">
  <rect width="920" height="520" fill="#f7faf9"/>
  <rect x="18" y="18" width="884" height="484" rx="8" fill="#ffffff" stroke="#d9e0e7"/>
  <text x="42" y="58" font-family="Arial, Microsoft YaHei, sans-serif" font-size="25" font-weight="700" fill="#17202a">机器学习分析示例</text>
  <text x="42" y="86" font-family="Arial, Microsoft YaHei, sans-serif" font-size="14" fill="#6b7785">运动想象分类、混淆矩阵和交叉验证</text>
  <g font-family="Arial" font-size="15" fill="#17202a"><rect x="230" y="130" width="92" height="92" fill="rgba(21,122,119,0.825)" stroke="#ffffff"/><text x="261" y="184" fill="#ffffff">86%</text><rect x="322" y="130" width="92" height="92" fill="rgba(21,122,119,0.24)" stroke="#ffffff"/><text x="353" y="184" fill="#17202a">8%</text><rect x="414" y="130" width="92" height="92" fill="rgba(21,122,119,0.22499999999999998)" stroke="#ffffff"/><text x="445" y="184" fill="#17202a">6%</text><rect x="230" y="222" width="92" height="92" fill="rgba(21,122,119,0.2625)" stroke="#ffffff"/><text x="261" y="276" fill="#17202a">11%</text><rect x="322" y="222" width="92" height="92" fill="rgba(21,122,119,0.7649999999999999)" stroke="#ffffff"/><text x="353" y="276" fill="#ffffff">78%</text><rect x="414" y="222" width="92" height="92" fill="rgba(21,122,119,0.2625)" stroke="#ffffff"/><text x="445" y="276" fill="#17202a">11%</text><rect x="230" y="314" width="92" height="92" fill="rgba(21,122,119,0.2175)" stroke="#ffffff"/><text x="261" y="368" fill="#17202a">5%</text><rect x="322" y="314" width="92" height="92" fill="rgba(21,122,119,0.28500000000000003)" stroke="#ffffff"/><text x="353" y="368" fill="#17202a">14%</text><rect x="414" y="314" width="92" height="92" fill="rgba(21,122,119,0.7875000000000001)" stroke="#ffffff"/><text x="445" y="368" fill="#ffffff">81%</text><text x="254" y="112" fill="#6b7785">Left</text><text x="160" y="185" fill="#6b7785">Left</text><text x="346" y="112" fill="#6b7785">Right</text><text x="160" y="277" fill="#6b7785">Right</text><text x="438" y="112" fill="#6b7785">Rest</text><text x="160" y="369" fill="#6b7785">Rest</text><text x="590" y="178" font-size="18" font-weight="700">Accuracy 83.1%</text><text x="590" y="210" fill="#6b7785">CSP + Logistic Regression</text><text x="590" y="238" fill="#6b7785">5-fold cross validation</text></g>
</svg>