<svg xmlns="http://www.w3.org/2000/svg" width="920" height="520" viewBox="0 0 920 520">
  <rect width="920" height="520" fill="#f7faf9"/>
  <rect x="18" y="18" width="884" height="484" rx="8" fill="#ffffff" stroke="#d9e0e7"/>
  <text x="42" y="58" font-family="Arial, Microsoft YaHei, sans-serif" font-size="25" font-weight="700" fill="#17202a">ICA 预处理示例</text>
  <text x="42" y="86" font-family="Arial, Microsoft YaHei, sans-serif" font-size="14" fill="#6b7785">ICLabel 分类、眼电成分识别和重建前检查</text>
  <circle cx="160" cy="170" r="58" fill="#f8faf9" stroke="#526577" stroke-width="2"/><circle cx="208.0" cy="170.0" r="8" fill="#157a77" opacity="0.72"/><circle cx="155.1" cy="207.7" r="11" fill="#d95f43" opacity="0.72"/><circle cx="132.9" cy="162.8" r="14" fill="#157a77" opacity="0.72"/><circle cx="166.8" cy="153.3" r="8" fill="#d95f43" opacity="0.72"/><circle cx="201.7" cy="193.7" r="11" fill="#157a77" opacity="0.72"/><circle cx="137.1" cy="200.3" r="14" fill="#d95f43" opacity="0.72"/><circle cx="140.0" cy="150.4" r="8" fill="#157a77" opacity="0.72"/><circle cx="174.1" cy="158.9" r="11" fill="#d95f43" opacity="0.72"/><circle cx="184.6" cy="211.2" r="14" fill="#157a77" opacity="0.72"/><circle cx="125.1" cy="185.1" r="8" fill="#d95f43" opacity="0.72"/><circle cx="152.3" cy="143.1" r="11" fill="#157a77" opacity="0.72"/><circle cx="177.8" cy="167.3" r="14" fill="#d95f43" opacity="0.72"/><text x="128" y="256" font-family="Arial" font-size="14" fill="#17202a">IC 1</text><text x="120" y="276" font-family="Arial" font-size="12" fill="#6b7785">Brain</text><circle cx="360" cy="170" r="58" fill="#f8faf9" stroke="#526577" stroke-width="2"/><circle cx="385.9" cy="210.4" r="8" fill="#157a77" opacity="0.72"/><circle cx="325.6" cy="186.2" r="11" fill="#d95f43" opacity="0.72"/><circle cx="351.4" cy="143.4" r="14" fill="#157a77" opacity="0.72"/><circle cx="377.7" cy="166.7" r="8" fill="#d95f43" opacity="0.72"/><circle cx="362.6" cy="217.9" r="11" fill="#157a77" opacity="0.72"/><circle cx="322.1" cy="167.1" r="14" fill="#d95f43" opacity="0.72"/><circle cx="365.7" cy="142.6" r="8" fill="#157a77" opacity="0.72"/><circle cx="377.0" cy="175.9" r="11" fill="#d95f43" opacity="0.72"/><circle cx="338.6" cy="212.9" r="14" fill="#157a77" opacity="0.72"/><circle cx="328.5" cy="148.8" r="8" fill="#d95f43" opacity="0.72"/><circle cx="378.5" cy="149.0" r="11" fill="#157a77" opacity="0.72"/><circle cx="371.9" cy="183.5" r="14" fill="#d95f43" opacity="0.72"/><text x="328" y="256" font-family="Arial" font-size="14" fill="#17202a">IC 2</text><text x="320" y="276" font-family="Arial" font-size="12" fill="#d95f43">Blink 0.91</text><circle cx="560" cy="170" r="58" fill="#f8faf9" stroke="#526577" stroke-width="2"/><circle cx="540.0" cy="213.6" r="8" fill="#157a77" opacity="0.72"/><circle cx="527.8" cy="149.9" r="11" fill="#d95f43" opacity="0.72"/><circle cx="577.8" cy="148.4" r="14" fill="#157a77" opacity="0.72"/><circle cx="572.3" cy="183.1" r="8" fill="#d95f43" opacity="0.72"/><circle cx="521.1" cy="198.1" r="11" fill="#157a77" opacity="0.72"/><circle cx="541.9" cy="136.6" r="14" fill="#d95f43" opacity="0.72"/><circle cx="586.1" cy="160.0" r="8" fill="#157a77" opacity="0.72"/><circle cx="564.2" cy="187.5" r="11" fill="#d95f43" opacity="0.72"/><circle cx="512.3" cy="175.2" r="14" fill="#157a77" opacity="0.72"/><circle cx="560.8" cy="132.0" r="8" fill="#d95f43" opacity="0.72"/><circle cx="587.7" cy="174.2" r="11" fill="#157a77" opacity="0.72"/><circle cx="555.0" cy="187.3" r="14" fill="#d95f43" opacity="0.72"/><text x="528" y="256" font-family="Arial" font-size="14" fill="#17202a">IC 3</text><text x="520" y="276" font-family="Arial" font-size="12" fill="#6b7785">Brain</text><circle cx="260" cy="340" r="58" fill="#f8faf9" stroke="#526577" stroke-width="2"/><circle cx="212.5" cy="346.8" r="8" fill="#157a77" opacity="0.72"/><circle cx="259.5" cy="302.0" r="11" fill="#d95f43" opacity="0.72"/><circle cx="287.8" cy="343.3" r="14" fill="#157a77" opacity="0.72"/><circle cx="255.6" cy="357.5" r="8" fill="#d95f43" opacity="0.72"/><circle cx="215.3" cy="322.4" r="11" fill="#157a77" opacity="0.72"/><circle cx="278.4" cy="306.7" r="14" fill="#d95f43" opacity="0.72"/><circle cx="282.6" cy="356.6" r="8" fill="#157a77" opacity="0.72"/><circle cx="247.6" cy="353.0" r="11" fill="#d95f43" opacity="0.72"/><circle cx="229.9" cy="302.6" r="14" fill="#157a77" opacity="0.72"/><circle cx="292.4" cy="320.2" r="8" fill="#d95f43" opacity="0.72"/><circle cx="271.4" cy="365.6" r="11" fill="#157a77" opacity="0.72"/><circle cx="242.8" cy="345.2" r="14" fill="#d95f43" opacity="0.72"/><text x="228" y="426" font-family="Arial" font-size="14" fill="#17202a">IC 4</text><text x="220" y="446" font-family="Arial" font-size="12" fill="#6b7785">Brain</text><circle cx="460" cy="340" r="58" fill="#f8faf9" stroke="#526577" stroke-width="2"/><circle cx="428.6" cy="303.7" r="8" fill="#157a77" opacity="0.72"/><circle cx="491.7" cy="319.1" r="11" fill="#d95f43" opacity="0.72"/><circle cx="472.3" cy="365.2" r="14" fill="#157a77" opacity="0.72"/><circle cx="442.9" cy="345.7" r="8" fill="#d95f43" opacity="0.72"/><circle cx="450.7" cy="292.9" r="11" fill="#157a77" opacity="0.72"/><circle cx="497.9" cy="337.5" r="14" fill="#d95f43" opacity="0.72"/><circle cx="458.2" cy="367.9" r="8" fill="#157a77" opacity="0.72"/><circle cx="442.3" cy="336.6" r="11" fill="#d95f43" opacity="0.72"/><circle cx="475.2" cy="294.5" r="14" fill="#157a77" opacity="0.72"/><circle cx="494.2" cy="356.5" r="8" fill="#d95f43" opacity="0.72"/><circle cx="444.7" cy="363.4" r="11" fill="#157a77" opacity="0.72"/><circle cx="446.3" cy="328.3" r="14" fill="#d95f43" opacity="0.72"/><text x="428" y="426" font-family="Arial" font-size="14" fill="#17202a">IC 5</text><text x="420" y="446" font-family="Arial" font-size="12" fill="#6b7785">Brain</text><circle cx="660" cy="340" r="58" fill="#f8faf9" stroke="#526577" stroke-width="2"/><circle cx="673.6" cy="294.0" r="8" fill="#157a77" opacity="0.72"/><circle cx="694.7" cy="355.4" r="11" fill="#d95f43" opacity="0.72"/><circle cx="645.5" cy="363.9" r="14" fill="#157a77" opacity="0.72"/><circle cx="645.9" cy="328.7" r="8" fill="#d95f43" opacity="0.72"/><circle cx="694.6" cy="306.7" r="11" fill="#157a77" opacity="0.72"/><circle cx="682.6" cy="370.5" r="14" fill="#d95f43" opacity="0.72"/><circle cx="635.5" cy="353.6" r="8" fill="#157a77" opacity="0.72"/><circle cx="653.3" cy="323.3" r="11" fill="#d95f43" opacity="0.72"/><circle cx="706.5" cy="328.1" r="14" fill="#157a77" opacity="0.72"/><circle cx="664.6" cy="377.7" r="8" fill="#d95f43" opacity="0.72"/><circle cx="632.0" cy="339.8" r="11" fill="#157a77" opacity="0.72"/><circle cx="662.5" cy="322.2" r="14" fill="#d95f43" opacity="0.72"/><text x="628" y="426" font-family="Arial" font-size="14" fill="#17202a">IC 6</text><text x="620" y="446" font-family="Arial" font-size="12" fill="#6b7785">Brain</text>
</svg>