<svg xmlns="http://www.w3.org/2000/svg" width="920" height="520" viewBox="0 0 920 520">
  <rect width="920" height="520" fill="#f7faf9"/>
  <rect x="18" y="18" width="884" height="484" rx="8" fill="#ffffff" stroke="#d9e0e7"/>
  <text x="42" y="58" font-family="Arial, Microsoft YaHei, sans-serif" font-size="25" font-weight="700" fill="#17202a">数据段波形示例</text>
  <text x="42" y="86" font-family="Arial, Microsoft YaHei, sans-serif" font-size="14" fill="#6b7785">相对时间窗口与事件标记叠加显示</text>
  <g stroke="#d9e0e7" stroke-width="1"><line x1="72" x2="852" y1="116" y2="116"/><line x1="72" x2="852" y1="199.75" y2="199.75"/><line x1="72" x2="852" y1="283.5" y2="283.5"/><line x1="72" x2="852" y1="367.25" y2="367.25"/><line x1="72" x2="852" y1="451" y2="451"/></g><line x1="72" x2="72" y1="116" y2="451" stroke="#526577"/><line x1="72" x2="852" y1="451" y2="451" stroke="#526577"/>
  <text x="427" y="493" font-family="Arial" font-size="13" fill="#6b7785">Time: 12.0s - 18.0s</text>
  <text x="38" y="108" font-family="Arial" font-size="13" fill="#6b7785">uV</text><polyline points="72.0,245.7 73.3,187.5 74.6,175.3 75.9,203.1 77.2,237.0 78.5,281.6 79.8,301.9 81.1,324.2 82.4,374.6 83.7,361.2 85.0,295.1 86.3,229.5 87.6,143.2 88.9,119.4 90.2,143.5 91.5,183.4 92.8,242.9 94.1,285.5 95.4,308.4 96.7,295.3 98.0,301.5 99.3,276.0 100.6,240.7 101.9,196.5 103.3,195.8 104.6,244.9 105.9,314.7 107.2,345.7 108.5,353.7 109.8,340.4 111.1,307.1 112.4,316.7 113.7,247.0 115.0,190.7 116.3,125.9 117.6,127.8 118.9,169.2 120.2,255.0 121.5,301.2 122.8,333.2 124.1,336.0 125.4,331.8 126.7,279.7 128.0,263.2 129.3,229.1 130.6,216.0 131.9,239.1 133.2,283.0 134.5,355.9 135.8,381.8 137.1,365.9 138.4,306.2 139.7,262.4 141.0,245.8 142.3,210.4 143.6,163.8 144.9,149.0 146.2,175.7 147.5,226.5 148.8,317.7 150.1,370.6 151.4,370.4 152.7,336.9 154.0,312.8 155.3,250.2 156.6,243.2 157.9,235.7 159.2,243.9 160.5,269.6 161.8,334.3 163.2,374.4 164.5,388.0 165.8,357.0 167.1,275.4 168.4,223.1 169.7,216.5 171.0,201.5 172.3,201.9 173.6,220.2 174.9,251.4 176.2,323.5 177.5,370.5 178.8,398.6 180.1,379.0 181.4,315.0 182.7,262.6 184.0,252.4 185.3,225.4 186.6,242.8 187.9,272.7 189.2,299.2 190.5,350.0 191.8,385.4 193.1,378.6 194.4,315.4 195.7,256.3 197.0,190.1 198.3,177.9 199.6,241.6 200.9,267.4 202.2,304.8 203.5,342.9 204.8,370.2 206.1,395.9 207.4,386.9 208.7,326.6 210.0,272.2 211.3,217.0 212.6,215.9 213.9,218.6 215.2,277.5 216.5,308.7 217.8,343.8 219.1,363.2 220.4,377.7 221.7,365.4 223.1,306.7 224.4,232.8 225.7,204.8 227.0,218.7 228.3,296.9 229.6,354.3 230.9,376.7 232.2,384.6 233.5,380.6 234.8,363.6 236.1,319.6 237.4,273.4 238.7,205.5 240.0,186.2 241.3,219.4 242.6,232.0 243.9,316.3 245.2,353.4 246.5,374.4 247.8,373.0 249.1,365.6 250.4,337.1 251.7,303.9 253.0,251.2 254.3,235.4 255.6,262.6 256.9,369.5 258.2,404.8 259.5,412.6 260.8,389.3 262.1,337.2 263.4,303.5 264.7,256.0 266.0,223.9 267.3,187.6 268.6,199.4 269.9,244.6 271.2,303.4 272.5,363.1 273.8,403.9 275.1,397.5 276.4,365.1 277.7,343.7 279.0,317.3 280.3,289.1 281.6,272.7 283.0,273.3 284.3,298.6 285.6,355.9 286.9,423.0 288.2,408.6 289.5,337.8 290.8,283.6 292.1,225.8 293.4,207.3 294.7,199.8 296.0,206.3 297.3,245.1 298.6,295.7 299.9,390.9 301.2,416.5 302.5,422.3 303.8,379.0 305.1,338.3 306.4,296.6 307.7,287.5 309.0,288.0 310.3,290.7 311.6,303.1 312.9,335.8 314.2,361.3 315.5,411.9 316.8,383.5 318.1,298.7 319.4,239.3 320.7,189.5 322.0,198.5 323.3,224.6 324.6,272.9 325.9,309.6 327.2,375.2 328.5,419.5 329.8,415.2 331.1,404.4 332.4,341.2 333.7,271.6 335.0,250.0 336.3,262.1 337.6,285.6 338.9,316.7 340.2,330.0 341.5,346.1 342.9,354.4 344.2,344.7 345.5,329.1 346.8,271.8 348.1,199.9 349.4,185.8 350.7,223.3 352.0,270.1 353.3,335.8 354.6,378.4 355.9,397.8 357.2,416.0 358.5,412.6 359.8,328.9 361.1,281.6 362.4,220.2 363.7,209.6 365.0,248.0 366.3,313.3 367.6,345.1 368.9,360.0 370.2,354.6 371.5,336.9 372.8,317.0 374.1,306.5 375.4,261.1 376.7,209.0 378.0,217.5 379.3,259.4 380.6,339.4 381.9,377.6 383.2,392.7 384.5,381.9 385.8,355.6 387.1,323.4 388.4,253.2 389.7,205.3 391.0,186.9 392.3,208.8 393.6,256.6 394.9,341.4 396.2,378.8 397.5,383.5 398.8,345.7 400.1,315.7 401.4,274.8 402.8,288.5 404.1,247.0 405.4,230.8 406.7,248.0 408.0,288.3 409.3,358.4 410.6,386.4 411.9,369.3 413.2,312.3 414.5,275.0 415.8,239.9 417.1,228.2 418.4,180.0 419.7,197.7 421.0,234.1 422.3,319.3 423.6,374.9 424.9,412.0 426.2,395.4 427.5,331.0 428.8,286.2 430.1,242.3 431.4,263.6 432.7,255.7 434.0,255.5 435.3,271.3 436.6,318.0 437.9,347.9 439.2,352.9 440.5,320.8 441.8,244.0 443.1,187.5 444.4,179.4 445.7,204.1 447.0,191.0 448.3,241.0 449.6,282.5 450.9,355.2 452.2,409.4 453.5,412.0 454.8,356.6 456.1,298.1 457.4,225.6 458.7,204.9 460.0,209.3 461.3,262.2 462.7,276.5 464.0,292.7 465.3,307.4 466.6,319.1 467.9,304.6 469.2,242.7 470.5,191.6 471.8,147.1 473.1,156.1 474.4,218.1 475.7,254.4 477.0,297.2 478.3,346.2 479.6,371.7 480.9,389.7 482.2,375.7 483.5,308.8 484.8,221.0 486.1,181.6 487.4,176.8 488.7,201.4 490.0,283.9 491.3,297.9 492.6,298.0 493.9,292.3 495.2,278.3 496.5,243.1 497.8,205.2 499.1,151.9 500.4,142.7 501.7,189.8 503.0,251.1 504.3,342.5 505.6,339.8 506.9,358.0 508.2,348.0 509.5,332.4 510.8,289.0 512.1,245.1 513.4,177.1 514.7,152.6 516.0,170.3 517.3,231.8 518.6,267.8 519.9,322.8 521.2,306.1 522.6,267.0 523.9,243.0 525.2,209.8 526.5,186.1 527.8,159.1 529.1,174.9 530.4,219.2 531.7,313.2 533.0,365.6 534.3,350.5 535.6,333.0 536.9,283.4 538.2,251.5 539.5,212.1 540.8,176.3 542.1,158.3 543.4,162.3 544.7,193.4 546.0,264.0 547.3,300.8 548.6,345.6 549.9,292.0 551.2,247.6 552.5,200.2 553.8,185.0 555.1,176.4 556.4,178.0 557.7,204.0 559.0,243.0 560.3,318.2 561.6,364.2 562.9,315.7 564.2,256.7 565.5,208.8 566.8,162.7 568.1,155.1 569.4,164.6 570.7,177.2 572.0,208.8 573.3,263.6 574.6,303.8 575.9,333.1 577.2,315.1 578.5,281.5 579.8,224.2 581.1,170.2 582.5,166.9 583.8,180.8 585.1,207.1 586.4,227.8 587.7,269.8 589.0,300.2 590.3,321.0 591.6,303.6 592.9,196.5 594.2,133.5 595.5,120.8 596.8,152.2 598.1,191.1 599.4,246.9 600.7,276.3 602.0,313.6 603.3,332.6 604.6,332.5 605.9,276.1 607.2,255.5 608.5,169.7 609.8,142.6 611.1,157.0 612.4,187.4 613.7,229.6 615.0,252.8 616.3,262.9 617.6,274.0 618.9,271.0 620.2,236.5 621.5,157.6 622.8,116.0 624.1,120.9 625.4,183.5 626.7,271.4 628.0,315.7 629.3,343.9 630.6,343.0 631.9,324.7 633.2,299.7 634.5,234.2 635.8,217.8 637.1,144.5 638.4,131.3 639.7,159.9 641.0,223.9 642.4,255.2 643.7,266.2 645.0,257.1 646.3,239.9 647.6,223.2 648.9,207.1 650.2,138.7 651.5,134.1 652.8,174.5 654.1,231.9 655.4,325.9 656.7,365.4 658.0,367.2 659.3,319.8 660.6,280.4 661.9,222.8 663.2,183.5 664.5,166.7 665.8,141.1 667.1,148.6 668.4,185.7 669.7,256.7 671.0,292.2 672.3,283.1 673.6,241.4 674.9,215.5 676.2,197.4 677.5,196.0 678.8,201.3 680.1,184.5 681.4,221.9 682.7,303.7 684.0,354.0 685.3,379.5 686.6,353.7 687.9,275.0 689.2,221.4 690.5,166.8 691.8,140.8 693.1,132.2 694.4,177.3 695.7,198.8 697.0,257.9 698.3,297.9 699.6,319.0 700.9,297.3 702.3,233.9 703.6,186.4 704.9,181.2 706.2,205.1 707.5,229.4 708.8,228.1 710.1,260.7 711.4,318.6 712.7,358.1 714.0,352.2 715.3,287.9 716.6,226.4 717.9,155.0 719.2,138.7 720.5,154.7 721.8,176.6 723.1,250.5 724.4,285.7 725.7,312.1 727.0,338.3 728.3,330.4 729.6,272.9 730.9,220.6 732.2,168.5 733.5,169.1 734.8,214.6 736.1,273.4 737.4,303.8 738.7,295.3 740.0,312.6 741.3,323.9 742.6,309.7 743.9,249.1 745.2,174.9 746.5,148.0 747.8,165.1 749.1,205.3 750.4,268.8 751.7,295.7 753.0,351.7 754.3,351.6 755.6,339.0 756.9,296.7 758.2,249.9 759.5,178.2 760.8,154.5 762.2,179.1 763.5,226.2 764.8,300.0 766.1,330.4 767.4,301.7 768.7,295.0 770.0,286.4 771.3,260.2 772.6,230.9 773.9,188.0 775.2,180.7 776.5,222.4 777.8,303.1 779.1,347.8 780.4,367.4 781.7,390.9 783.0,342.7 784.3,308.3 785.6,254.7 786.9,215.5 788.2,164.9 789.5,159.7 790.8,193.1 792.1,276.6 793.4,327.0 794.7,357.7 796.0,306.7 797.3,275.1 798.6,258.1 799.9,243.6 801.2,232.6 802.5,229.4 803.8,251.0 805.1,289.8 806.4,364.7 807.7,399.5 809.0,393.1 810.3,364.3 811.6,306.4 812.9,237.1 814.2,207.7 815.5,180.7 816.8,173.1 818.1,191.2 819.4,229.5 820.7,310.4 822.1,369.5 823.4,374.3 824.7,294.9 826.0,261.6 827.3,236.4 828.6,240.7 829.9,263.4 831.2,281.0 832.5,313.8 833.8,362.3 835.1,394.8 836.4,408.7 837.7,378.9 839.0,286.0 840.3,259.1 841.6,192.0 842.9,181.2 844.2,193.9 845.5,224.1 846.8,250.8 848.1,306.3 849.4,347.6 850.7,386.0 852.0,380.0" fill="none" stroke="#157a77" stroke-width="1.7" stroke-linejoin="round" stroke-linecap="round"/><text x="42" y="158" font-family="Arial" font-size="13" fill="#157a77">Fp1</text><polyline points="72.0,252.6 73.3,302.3 74.6,336.7 75.9,370.2 77.2,363.6 78.5,301.4 79.8,240.4 81.1,164.7 82.4,180.3 83.7,189.9 85.0,218.1 86.3,234.3 87.6,255.2 88.9,269.9 90.2,284.5 91.5,277.8 92.8,236.5 94.1,187.3 95.4,176.6 96.7,176.9 98.0,227.5 99.3,303.7 100.6,337.6 101.9,358.8 103.3,359.4 104.6,342.8 105.9,295.2 107.2,246.0 108.5,171.4 109.8,143.8 111.1,193.1 112.4,227.9 113.7,279.9 115.0,295.9 116.3,289.3 117.6,268.2 118.9,254.9 120.2,232.9 121.5,215.1 122.8,198.0 124.1,208.8 125.4,233.8 126.7,322.2 128.0,366.3 129.3,380.7 130.6,358.9 131.9,307.2 133.2,274.0 134.5,231.2 135.8,204.8 137.1,176.0 138.4,183.2 139.7,250.6 141.0,311.7 142.3,338.4 143.6,330.3 144.9,297.8 146.2,243.1 147.5,220.8 148.8,214.7 150.1,227.9 151.4,243.8 152.7,286.3 154.0,328.6 155.3,355.8 156.6,377.4 157.9,354.7 159.2,284.0 160.5,237.4 161.8,201.1 163.2,200.9 164.5,218.9 165.8,234.5 167.1,263.6 168.4,289.2 169.7,361.4 171.0,360.6 172.3,329.6 173.6,257.1 174.9,216.9 176.2,201.9 177.5,222.4 178.8,272.2 180.1,302.7 181.4,337.2 182.7,364.1 184.0,337.9 185.3,325.4 186.6,292.6 187.9,225.6 189.2,193.2 190.5,194.7 191.8,249.0 193.1,291.8 194.4,334.6 195.7,345.0 197.0,343.4 198.3,371.2 199.6,338.6 200.9,300.8 202.2,235.4 203.5,202.4 204.8,215.3 206.1,275.1 207.4,318.6 208.7,353.9 210.0,353.2 211.3,333.2 212.6,280.6 213.9,255.9 215.2,225.1 216.5,207.8 217.8,212.7 219.1,246.2 220.4,326.8 221.7,375.7 223.1,403.6 224.4,372.8 225.7,336.3 227.0,320.8 228.3,291.7 229.6,252.9 230.9,232.5 232.2,228.2 233.5,250.9 234.8,310.8 236.1,355.8 237.4,355.9 238.7,314.6 240.0,279.1 241.3,247.2 242.6,209.1 243.9,226.5 245.2,245.0 246.5,286.5 247.8,350.0 249.1,394.7 250.4,430.0 251.7,416.2 253.0,346.2 254.3,289.0 255.6,228.1 256.9,247.8 258.2,251.4 259.5,263.3 260.8,275.4 262.1,305.2 263.4,328.1 264.7,342.3 266.0,325.8 267.3,269.8 268.6,222.5 269.9,220.2 271.2,227.7 272.5,273.4 273.8,336.0 275.1,366.7 276.4,399.6 277.7,412.3 279.0,403.0 280.3,345.0 281.6,287.6 283.0,213.7 284.3,194.4 285.6,252.0 286.9,282.2 288.2,317.5 289.5,326.3 290.8,323.5 292.1,314.9 293.4,303.1 294.7,268.4 296.0,239.8 297.3,219.8 298.6,238.4 299.9,276.0 301.2,361.5 302.5,397.3 303.8,405.8 305.1,390.3 306.4,355.0 307.7,327.0 309.0,274.9 310.3,237.4 311.6,201.7 312.9,218.4 314.2,255.6 315.5,349.9 316.8,366.0 318.1,345.9 319.4,315.4 320.7,273.7 322.0,251.0 323.3,243.1 324.6,241.0 325.9,254.0 327.2,307.6 328.5,360.2 329.8,390.5 331.1,404.9 332.4,371.2 333.7,305.0 335.0,267.8 336.3,238.1 337.6,231.5 338.9,231.8 340.2,240.9 341.5,276.4 342.9,311.0 344.2,386.7 345.5,373.3 346.8,333.6 348.1,262.2 349.4,231.0 350.7,226.0 352.0,243.2 353.3,278.3 354.6,315.5 355.9,343.9 357.2,385.8 358.5,362.7 359.8,339.2 361.1,296.2 362.4,225.8 363.7,199.9 365.0,210.6 366.3,257.8 367.6,289.3 368.9,322.5 370.2,337.3 371.5,350.9 372.8,384.0 374.1,343.7 375.4,296.1 376.7,226.4 378.0,205.1 379.3,225.9 380.6,283.5 381.9,317.2 383.2,341.3 384.5,343.1 385.8,336.4 387.1,280.7 388.4,256.0 389.7,207.8 391.0,185.7 392.3,198.3 393.6,239.8 394.9,320.8 396.2,361.4 397.5,378.2 398.8,353.6 400.1,328.4 401.4,286.1 402.8,289.8 404.1,236.2 405.4,210.7 406.7,213.6 408.0,245.3 409.3,308.0 410.6,339.2 411.9,329.7 413.2,288.0 414.5,260.3 415.8,236.2 417.1,193.1 418.4,193.3 419.7,215.0 421.0,250.6 422.3,328.9 423.6,377.5 424.9,404.7 426.2,383.4 427.5,314.4 428.8,266.9 430.1,218.9 431.4,233.6 432.7,226.1 434.0,227.5 435.3,242.7 436.6,285.0 437.9,311.1 439.2,314.6 440.5,286.6 441.8,223.8 443.1,186.0 444.4,190.4 445.7,194.3 447.0,229.9 448.3,282.0 449.6,316.4 450.9,366.2 452.2,390.0 453.5,374.9 454.8,304.7 456.1,245.2 457.4,181.8 458.7,170.9 460.0,227.8 461.3,247.9 462.7,268.4 464.0,279.4 465.3,285.2 466.6,283.4 467.9,265.7 469.2,214.2 470.5,179.6 471.8,166.2 473.1,194.0 474.4,272.5 475.7,310.0 477.0,338.8 478.3,351.8 479.6,347.7 480.9,325.7 482.2,295.9 483.5,229.6 484.8,168.3 486.1,153.6 487.4,182.0 488.7,220.3 490.0,301.9 491.3,307.7 492.6,284.9 493.9,262.2 495.2,231.8 496.5,203.5 497.8,184.8 499.1,173.2 500.4,190.6 501.7,259.4 503.0,317.5 504.3,341.6 505.6,347.7 506.9,312.1 508.2,259.6 509.5,230.9 510.8,198.7 512.1,181.3 513.4,168.5 514.7,178.6 516.0,226.6 517.3,283.0 518.6,335.8 519.9,308.2 521.2,266.0 522.6,205.4 523.9,183.4 525.2,179.4 526.5,188.0 527.8,210.8 529.1,253.3 530.4,292.6 531.7,344.9 533.0,318.3 534.3,281.4 535.6,233.8 536.9,171.0 538.2,153.8 539.5,166.3 540.8,198.8 542.1,220.8 543.4,254.8 544.7,279.4 546.0,305.0 547.3,299.6 548.6,283.4 549.9,205.0 551.2,167.5 552.5,160.7 553.8,184.3 555.1,231.4 556.4,256.2 557.7,279.7 559.0,290.6 560.3,296.9 561.6,236.5 562.9,201.0 564.2,142.2 565.5,123.0 566.8,147.9 568.1,193.0 569.4,265.0 570.7,296.2 572.0,310.9 573.3,301.6 574.6,286.8 575.9,245.5 577.2,240.9 578.5,177.5 579.8,155.0 581.1,172.2 582.5,231.2 583.8,266.7 585.1,283.7 586.4,271.5 587.7,239.9 589.0,220.8 590.3,196.2 591.6,143.2 592.9,128.7 594.2,153.3 595.5,198.7 596.8,286.9 598.1,332.7 599.4,348.9 600.7,325.7 602.0,268.9 603.3,233.3 604.6,191.4 605.9,194.4 607.2,178.4 608.5,180.8 609.8,205.1 611.1,257.7 612.4,280.8 613.7,269.3 615.0,213.7 616.3,176.2 617.6,150.7 618.9,156.5 620.2,148.3 621.5,174.2 622.8,225.9 624.1,270.5 625.4,336.3 626.7,360.2 628.0,338.0 629.3,262.7 630.6,209.5 631.9,161.8 633.2,155.6 634.5,166.4 635.8,213.0 637.1,228.4 638.4,251.1 639.7,265.1 641.0,261.0 642.4,233.2 643.7,169.6 645.0,136.7 646.3,136.4 647.6,193.3 648.9,243.0 650.2,268.5 651.5,296.9 652.8,324.8 654.1,333.1 655.4,316.3 656.7,279.9 658.0,202.8 659.3,146.0 660.6,140.7 661.9,176.8 663.2,209.9 664.5,276.2 665.8,277.1 667.1,262.8 668.4,249.9 669.7,223.3 671.0,182.0 672.3,154.4 673.6,144.0 674.9,171.2 676.2,252.3 677.5,309.5 678.8,322.8 680.1,319.3 681.4,299.5 682.7,263.9 684.0,238.8 685.3,196.1 686.6,168.8 687.9,153.4 689.2,171.2 690.5,230.8 691.8,282.9 693.1,326.1 694.4,290.6 695.7,253.4 697.0,207.9 698.3,190.7 699.6,178.4 700.9,177.4 702.3,197.1 703.6,253.9 704.9,303.5 706.2,357.3 707.5,360.1 708.8,277.6 710.1,233.6 711.4,185.1 712.7,173.0 714.0,178.3 715.3,195.2 716.6,213.9 717.9,258.7 719.2,293.4 720.5,322.0 721.8,309.4 723.1,282.6 724.4,210.0 725.7,183.2 727.0,185.9 728.3,205.6 729.6,239.3 730.9,260.6 732.2,294.6 733.5,316.6 734.8,328.6 736.1,293.2 737.4,212.0 738.7,153.3 740.0,142.3 741.3,176.2 742.6,217.8 743.9,275.4 745.2,310.4 746.5,324.1 747.8,331.9 749.1,321.9 750.4,272.6 751.7,260.0 753.0,196.7 754.3,183.3 755.6,213.8 756.9,269.2 758.2,295.3 759.5,304.5 760.8,297.2 762.2,280.1 763.5,265.0 764.8,230.2 766.1,165.9 767.4,145.1 768.7,180.7 770.0,234.4 771.3,322.2 772.6,360.1 773.9,368.9 775.2,351.0 776.5,312.2 777.8,270.4 779.1,238.9 780.4,228.8 781.7,210.5 783.0,223.7 784.3,257.5 785.6,311.4 786.9,325.9 788.2,301.5 789.5,249.0 790.8,220.3 792.1,201.2 793.4,201.0 794.7,176.4 796.0,197.2 797.3,258.0 798.6,313.8 799.9,387.1 801.2,402.6 802.5,374.6 803.8,304.2 805.1,262.1 806.4,226.6 807.7,218.0 809.0,214.4 810.3,258.7 811.6,275.2 812.9,311.4 814.2,327.4 815.5,311.6 816.8,273.3 818.1,206.4 819.4,180.7 820.7,190.9 822.1,242.4 823.4,282.3 824.7,300.6 826.0,335.3 827.3,381.4 828.6,396.8 829.9,375.0 831.2,330.5 832.5,250.8 833.8,206.6 835.1,209.4 836.4,242.8 837.7,265.6 839.0,320.0 840.3,323.0 841.6,322.0 842.9,306.8 844.2,280.7 845.5,223.5 846.8,192.2 848.1,191.4 849.4,227.6 850.7,310.8 852.0,360.7" fill="none" stroke="#d95f43" stroke-width="1.7" stroke-linejoin="round" stroke-linecap="round"/><text x="42" y="230" font-family="Arial" font-size="13" fill="#d95f43">Fp2</text><polyline points="72.0,351.4 73.3,276.6 74.6,241.1 75.9,225.0 77.2,230.6 78.5,244.1 79.8,254.0 81.1,314.8 82.4,330.3 83.7,332.4 85.0,283.9 86.3,229.6 87.6,158.6 88.9,144.0 90.2,182.0 91.5,231.8 92.8,306.5 94.1,360.5 95.4,346.6 96.7,370.2 98.0,367.9 99.3,325.6 100.6,278.6 101.9,218.8 103.3,209.0 104.6,245.9 105.9,303.9 107.2,326.7 108.5,322.3 109.8,341.5 111.1,303.0 112.4,275.0 113.7,225.7 115.0,193.0 116.3,171.7 117.6,214.1 118.9,273.4 120.2,365.5 121.5,401.5 122.8,401.5 124.1,377.4 125.4,296.6 126.7,266.0 128.0,249.3 129.3,231.4 130.6,233.6 131.9,272.6 133.2,316.2 134.5,369.3 135.8,372.8 137.1,322.1 138.4,243.8 139.7,244.1 141.0,221.8 142.3,225.9 143.6,246.4 144.9,269.1 146.2,321.9 147.5,364.1 148.8,406.9 150.1,389.1 151.4,344.9 152.7,270.6 154.0,203.2 155.3,211.2 156.6,239.3 157.9,286.7 159.2,325.6 160.5,348.3 161.8,373.8 163.2,373.8 164.5,331.4 165.8,280.3 167.1,209.4 168.4,231.4 169.7,261.3 171.0,324.4 172.3,358.3 173.6,379.6 174.9,378.4 176.2,364.4 177.5,345.7 178.8,296.3 180.1,254.6 181.4,211.8 182.7,192.8 184.0,242.4 185.3,331.3 186.6,372.7 187.9,387.8 189.2,374.4 190.5,343.7 191.8,311.6 193.1,287.5 194.4,252.6 195.7,243.4 197.0,311.0 198.3,353.4 199.6,413.6 200.9,425.5 202.2,386.5 203.5,312.0 204.8,268.4 206.1,231.2 207.4,222.5 208.7,227.1 210.0,245.4 211.3,305.5 212.6,322.0 213.9,394.7 215.2,408.3 216.5,380.1 217.8,316.8 219.1,286.7 220.4,279.6 221.7,293.2 223.1,319.2 224.4,343.1 225.7,360.4 227.0,422.2 228.3,420.2 229.6,370.3 230.9,309.7 232.2,218.6 233.5,186.1 234.8,199.3 236.1,260.7 237.4,304.7 238.7,357.3 240.0,384.8 241.3,376.9 242.6,384.7 243.9,361.6 245.2,326.0 246.5,276.3 247.8,276.7 249.1,310.1 250.4,376.4 251.7,405.5 253.0,406.0 254.3,383.4 255.6,375.3 256.9,319.4 258.2,276.4 259.5,213.5 260.8,190.2 262.1,211.5 263.4,262.0 264.7,353.8 266.0,396.9 267.3,411.4 268.6,385.6 269.9,326.3 271.2,307.2 272.5,298.7 273.8,290.0 275.1,294.3 276.4,331.8 277.7,374.3 279.0,429.2 280.3,425.0 281.6,382.6 283.0,292.0 284.3,239.9 285.6,238.4 286.9,232.9 288.2,243.4 289.5,274.6 290.8,310.4 292.1,376.6 293.4,410.1 294.7,411.9 296.0,379.1 297.3,313.7 298.6,286.8 299.9,254.3 301.2,299.6 302.5,331.6 303.8,368.5 305.1,387.2 306.4,406.0 307.7,403.0 309.0,356.9 310.3,301.2 311.6,217.1 312.9,186.1 314.2,245.2 315.5,307.5 316.8,346.9 318.1,379.9 319.4,386.5 320.7,384.1 322.0,364.5 323.3,336.3 324.6,280.3 325.9,253.2 327.2,262.1 328.5,264.2 329.8,346.4 331.1,386.4 332.4,398.5 333.7,367.7 335.0,340.1 336.3,300.3 337.6,273.3 338.9,235.3 340.2,223.4 341.5,248.6 342.9,333.0 344.2,406.7 345.5,433.3 346.8,412.7 348.1,348.2 349.4,305.8 350.7,265.6 352.0,253.5 353.3,249.5 354.6,268.8 355.9,301.7 357.2,332.4 358.5,372.6 359.8,385.0 361.1,356.0 362.4,287.3 363.7,251.7 365.0,239.8 366.3,266.1 367.6,290.1 368.9,325.8 370.2,351.3 371.5,387.7 372.8,437.0 374.1,403.7 375.4,349.2 376.7,254.6 378.0,202.4 379.3,206.2 380.6,250.9 381.9,286.1 383.2,326.0 384.5,344.8 385.8,366.3 387.1,328.9 388.4,310.1 389.7,258.1 391.0,227.8 392.3,228.0 393.6,264.7 394.9,345.1 396.2,388.4 397.5,409.9 398.8,386.7 400.1,359.0 401.4,346.3 402.8,302.4 404.1,230.4 405.4,194.6 406.7,190.9 408.0,225.6 409.3,301.8 410.6,350.3 411.9,351.2 413.2,321.2 414.5,299.0 415.8,240.3 417.1,235.8 418.4,236.3 419.7,257.5 421.0,292.9 422.3,370.2 423.6,415.8 424.9,432.2 426.2,399.7 427.5,312.0 428.8,254.2 430.1,237.9 431.4,217.4 432.7,215.0 434.0,227.2 435.3,250.4 436.6,303.1 437.9,333.9 439.2,339.5 440.5,310.9 441.8,248.5 443.1,217.7 444.4,230.9 445.7,246.3 447.0,288.3 448.3,339.9 449.6,366.5 450.9,395.1 452.2,392.0 453.5,359.5 454.8,271.1 456.1,208.3 457.4,155.2 458.7,159.4 460.0,245.0 461.3,278.5 462.7,306.7 464.0,310.8 465.3,307.7 466.6,293.3 467.9,271.6 469.2,224.9 470.5,201.1 471.8,211.5 473.1,255.2 474.4,307.0 475.7,371.7 477.0,381.0 478.3,353.9 479.6,323.9 480.9,276.8 482.2,243.7 483.5,193.5 484.8,166.3 486.1,177.3 487.4,236.2 488.7,322.7 490.0,357.6 491.3,344.8 492.6,288.9 493.9,249.9 495.2,214.8 496.5,206.9 497.8,210.8 499.1,233.5 500.4,266.2 501.7,336.8 503.0,339.9 504.3,357.8 505.6,329.8 506.9,253.3 508.2,191.1 509.5,177.2 510.8,190.9 512.1,210.3 513.4,242.5 514.7,267.5 516.0,308.7 517.3,368.2 518.6,351.6 519.9,281.1 521.2,224.5 522.6,173.0 523.9,175.6 525.2,220.9 526.5,257.8 527.8,298.4 529.1,320.5 530.4,328.8 531.7,324.2 533.0,261.7 534.3,200.7 535.6,160.8 536.9,144.0 538.2,172.3 539.5,251.2 540.8,319.2 542.1,338.4 543.4,331.4 544.7,313.8 546.0,276.9 547.3,282.8 548.6,221.0 549.9,175.8 551.2,175.8 552.5,226.0 553.8,273.9 555.1,320.1 556.4,318.3 557.7,278.2 559.0,245.7 560.3,211.4 561.6,155.6 562.9,152.1 564.2,167.7 565.5,201.3 566.8,283.9 568.1,340.6 569.4,382.2 570.7,367.2 572.0,298.8 573.3,226.6 574.6,196.5 575.9,217.4 577.2,214.2 578.5,219.6 579.8,234.7 581.1,274.1 582.5,304.2 583.8,297.4 585.1,240.3 586.4,189.5 587.7,142.1 589.0,146.3 590.3,157.7 591.6,203.4 592.9,266.7 594.2,319.9 595.5,349.4 596.8,368.9 598.1,352.4 599.4,282.0 600.7,223.5 602.0,165.9 603.3,163.4 604.6,200.3 605.9,279.8 607.2,289.9 608.5,282.4 609.8,270.4 611.1,245.1 612.4,218.7 613.7,165.9 615.0,130.0 616.3,139.2 617.6,211.7 618.9,281.0 620.2,326.7 621.5,352.0 622.8,345.3 624.1,325.3 625.4,289.1 626.7,245.9 628.0,213.7 629.3,178.8 630.6,179.8 631.9,223.6 633.2,263.7 634.5,334.4 635.8,319.7 637.1,257.5 638.4,193.0 639.7,167.6 641.0,157.0 642.4,162.3 643.7,189.1 645.0,225.5 646.3,306.1 647.6,380.9 648.9,360.5 650.2,327.8 651.5,280.0 652.8,215.4 654.1,195.9 655.4,200.7 656.7,214.5 658.0,237.0 659.3,264.4 660.6,285.7 661.9,302.7 663.2,327.8 664.5,260.8 665.8,203.8 667.1,147.9 668.4,148.5 669.7,197.9 671.0,263.3 672.3,297.5 673.6,331.8 674.9,346.8 676.2,351.6 677.5,334.2 678.8,235.6 680.1,172.7 681.4,157.0 682.7,190.7 684.0,238.1 685.3,302.2 686.6,321.5 687.9,314.9 689.2,297.6 690.5,264.3 691.8,258.6 693.1,222.5 694.4,182.5 695.7,183.7 697.0,237.7 698.3,292.2 699.6,353.2 700.9,360.7 702.3,326.5 703.6,275.6 704.9,248.7 706.2,221.5 707.5,169.8 708.8,169.5 710.1,191.6 711.4,261.6 712.7,339.7 714.0,366.2 715.3,345.8 716.6,303.2 717.9,238.0 719.2,212.3 720.5,203.2 721.8,247.6 723.1,262.9 724.4,295.0 725.7,325.5 727.0,361.3 728.3,358.4 729.6,301.5 730.9,243.8 732.2,176.4 733.5,165.0 734.8,196.9 736.1,214.5 737.4,251.6 738.7,302.6 740.0,334.2 741.3,365.1 742.6,360.9 743.9,310.0 745.2,239.2 746.5,211.2 747.8,222.5 749.1,256.4 750.4,347.0 751.7,363.2 753.0,358.3 754.3,343.6 755.6,310.7 756.9,257.7 758.2,212.1 759.5,155.7 760.8,148.7 762.2,201.1 763.5,264.3 764.8,353.2 766.1,346.6 767.4,353.4 768.7,335.2 770.0,320.7 771.3,294.7 772.6,273.1 773.9,248.3 775.2,251.7 776.5,296.5 777.8,357.0 779.1,375.7 780.4,385.4 781.7,335.3 783.0,254.5 784.3,215.5 785.6,186.2 786.9,181.0 788.2,194.1 789.5,244.3 790.8,298.6 792.1,382.0 793.4,413.9 794.7,363.4 796.0,327.3 797.3,273.6 798.6,258.7 799.9,271.1 801.2,300.0 802.5,318.1 803.8,344.5 805.1,363.0 806.4,376.6 807.7,360.3 809.0,327.2 810.3,230.2 811.6,184.8 812.9,176.9 814.2,206.7 815.5,269.9 816.8,307.2 818.1,349.4 819.4,371.4 820.7,391.4 822.1,376.7 823.4,304.9 824.7,249.8 826.0,233.2 827.3,262.4 828.6,308.3 829.9,373.8 831.2,394.0 832.5,384.0 833.8,347.4 835.1,317.7 836.4,263.9 837.7,222.3 839.0,211.3 840.3,204.4 841.6,250.8 842.9,335.7 844.2,381.6 845.5,401.2 846.8,384.3 848.1,343.4 849.4,320.8 850.7,298.3 852.0,287.7" fill="none" stroke="#526577" stroke-width="1.7" stroke-linejoin="round" stroke-linecap="round"/><text x="42" y="302" font-family="Arial" font-size="13" fill="#526577">F3</text><polyline points="72.0,256.7 73.3,285.9 74.6,316.2 75.9,353.1 77.2,351.7 78.5,295.5 79.8,235.5 81.1,193.9 82.4,170.7 83.7,181.9 85.0,221.3 86.3,250.4 87.6,295.1 88.9,325.4 90.2,357.5 91.5,356.9 92.8,315.6 94.1,221.3 95.4,201.9 96.7,224.2 98.0,264.3 99.3,324.4 100.6,346.8 101.9,350.0 103.3,338.8 104.6,309.0 105.9,258.8 107.2,216.0 108.5,162.8 109.8,191.2 111.1,233.8 112.4,284.5 113.7,348.5 115.0,363.5 116.3,344.7 117.6,307.2 118.9,285.8 120.2,261.8 121.5,249.7 122.8,246.8 124.1,228.8 125.4,290.2 126.7,358.1 128.0,379.0 129.3,353.9 130.6,310.5 131.9,246.1 133.2,221.8 134.5,216.8 135.8,226.0 137.1,249.4 138.4,323.9 139.7,355.7 141.0,390.5 142.3,387.2 143.6,333.2 144.9,280.0 146.2,220.3 147.5,212.6 148.8,245.7 150.1,296.9 151.4,325.2 152.7,319.4 154.0,334.1 155.3,341.0 156.6,326.8 157.9,275.9 159.2,222.7 160.5,212.3 161.8,250.4 163.2,298.5 164.5,361.5 165.8,379.3 167.1,404.8 168.4,383.1 169.7,341.8 171.0,290.7 172.3,253.2 173.6,213.6 174.9,214.9 176.2,265.3 177.5,315.2 178.8,369.4 180.1,374.5 181.4,342.7 182.7,265.6 184.0,250.2 185.3,246.0 186.6,251.5 187.9,273.4 189.2,302.9 190.5,367.7 191.8,422.8 193.1,428.7 194.4,378.4 195.7,320.4 197.0,278.6 198.3,250.8 199.6,246.4 200.9,256.8 202.2,278.6 203.5,308.0 204.8,331.4 206.1,354.8 207.4,348.6 208.7,302.7 210.0,264.3 211.3,202.2 212.6,221.1 213.9,290.5 215.2,364.1 216.5,396.3 217.8,416.2 219.1,415.6 220.4,394.0 221.7,361.5 223.1,288.8 224.4,221.5 225.7,240.7 227.0,268.0 228.3,306.6 229.6,351.5 230.9,356.4 232.2,331.1 233.5,306.9 234.8,277.9 236.1,259.0 237.4,251.3 238.7,260.4 240.0,254.5 241.3,335.6 242.6,394.2 243.9,444.0 245.2,437.1 246.5,380.5 247.8,314.7 249.1,285.1 250.4,263.4 251.7,258.1 253.0,261.5 254.3,275.6 255.6,349.6 256.9,377.9 258.2,370.9 259.5,315.6 260.8,266.6 262.1,219.9 263.4,222.5 264.7,268.5 266.0,309.9 267.3,365.7 268.6,409.4 269.9,395.2 271.2,405.8 272.5,387.5 273.8,323.9 275.1,275.6 276.4,237.1 277.7,246.7 279.0,297.4 280.3,344.1 281.6,354.7 283.0,342.5 284.3,361.3 285.6,328.6 286.9,300.8 288.2,253.2 289.5,226.3 290.8,238.6 292.1,304.8 293.4,361.6 294.7,419.3 296.0,423.9 297.3,390.3 298.6,322.5 299.9,285.1 301.2,262.0 302.5,252.6 303.8,256.1 305.1,278.1 306.4,337.3 307.7,376.4 309.0,394.9 310.3,370.3 311.6,299.1 312.9,274.4 314.2,258.0 315.5,266.2 316.8,282.4 318.1,312.5 319.4,337.2 320.7,378.5 322.0,399.6 323.3,385.9 324.6,323.6 325.9,274.2 327.2,196.9 328.5,205.4 329.8,257.9 331.1,299.0 332.4,344.4 333.7,367.7 335.0,374.4 336.3,365.7 337.6,341.0 338.9,280.2 340.2,241.4 341.5,222.9 342.9,281.8 344.2,344.0 345.5,388.6 346.8,390.8 348.1,360.3 349.4,331.1 350.7,288.4 352.0,261.0 353.3,224.2 354.6,214.9 355.9,238.3 357.2,278.1 358.5,335.6 359.8,386.6 361.1,384.3 362.4,342.7 363.7,310.5 365.0,280.7 366.3,272.5 367.6,273.1 368.9,284.5 370.2,304.0 371.5,382.4 372.8,402.7 374.1,388.8 375.4,344.8 376.7,255.2 378.0,192.8 379.3,184.4 380.6,212.7 381.9,243.7 383.2,292.1 384.5,324.6 385.8,335.3 387.1,360.1 388.4,350.6 389.7,300.9 391.0,263.7 392.3,242.9 393.6,262.0 394.9,319.0 396.2,352.6 397.5,370.6 398.8,352.7 400.1,366.2 401.4,319.2 402.8,277.5 404.1,207.5 405.4,172.7 406.7,170.5 408.0,206.9 409.3,288.7 410.6,348.4 411.9,358.7 413.2,341.5 414.5,324.1 415.8,269.0 417.1,261.0 418.4,253.0 419.7,262.7 421.0,288.7 422.3,349.7 423.6,384.9 424.9,390.1 426.2,354.5 427.5,268.3 428.8,214.7 430.1,205.0 431.4,197.9 432.7,205.7 434.0,231.6 435.3,260.4 436.6,314.5 437.9,342.8 439.2,344.5 440.5,315.4 441.8,256.4 443.1,230.6 444.4,209.4 445.7,263.4 447.0,300.8 448.3,338.8 449.6,351.7 450.9,356.3 452.2,334.1 453.5,297.1 454.8,218.1 456.1,170.9 457.4,147.0 458.7,205.5 460.0,269.1 461.3,306.3 462.7,328.2 464.0,315.9 465.3,300.6 466.6,274.7 467.9,253.6 469.2,221.0 470.5,211.2 471.8,238.1 473.1,247.5 474.4,324.9 475.7,359.9 477.0,346.6 478.3,291.9 479.6,253.1 480.9,213.1 482.2,198.7 483.5,189.9 484.8,202.9 486.1,229.8 487.4,324.5 488.7,355.8 490.0,356.2 491.3,321.4 492.6,246.6 493.9,207.9 495.2,191.9 496.5,216.0 497.8,239.9 499.1,276.4 500.4,302.0 501.7,338.3 503.0,313.2 504.3,290.1 505.6,249.1 506.9,182.7 508.2,161.3 509.5,182.8 510.8,245.0 512.1,283.9 513.4,316.1 514.7,320.9 516.0,312.0 517.3,318.2 518.6,282.1 519.9,214.6 521.2,179.7 522.6,175.4 523.9,207.0 525.2,274.6 526.5,306.8 527.8,312.8 529.1,282.5 530.4,258.9 531.7,195.1 533.0,181.2 534.3,168.3 535.6,173.9 536.9,219.8 538.2,272.0 539.5,347.2 540.8,368.6 542.1,343.6 543.4,273.6 544.7,229.1 546.0,224.8 547.3,213.5 548.6,209.6 549.9,221.2 551.2,241.6 552.5,282.6 553.8,300.1 555.1,284.0 556.4,245.1 557.7,178.9 559.0,155.8 560.3,137.0 561.6,197.4 562.9,241.2 564.2,295.3 565.5,323.1 566.8,351.1 568.1,352.4 569.4,313.5 570.7,264.0 572.0,189.6 573.3,162.5 574.6,178.6 575.9,262.3 577.2,286.0 578.5,289.6 579.8,275.2 581.1,245.3 582.5,212.1 583.8,186.3 585.1,151.0 586.4,145.1 587.7,186.2 589.0,244.2 590.3,302.3 591.6,343.0 592.9,349.0 594.2,309.9 595.5,279.3 596.8,242.8 598.1,223.7 599.4,201.5 600.7,197.3 602.0,219.6 603.3,249.9 604.6,323.2 605.9,308.5 607.2,266.5 608.5,188.9 609.8,152.8 611.1,143.2 612.4,161.1 613.7,204.2 615.0,256.0 616.3,295.4 617.6,351.8 618.9,336.1 620.2,319.1 621.5,278.5 622.8,210.6 624.1,186.3 625.4,198.5 626.7,243.5 628.0,269.4 629.3,286.2 630.6,285.3 631.9,272.4 633.2,289.7 634.5,237.6 635.8,192.9 637.1,143.6 638.4,155.0 639.7,198.2 641.0,280.3 642.4,320.4 643.7,338.2 645.0,328.0 646.3,301.4 647.6,236.1 648.9,214.8 650.2,186.0 651.5,181.3 652.8,214.6 654.1,259.0 655.4,321.5 656.7,335.8 658.0,303.3 659.3,237.0 660.6,198.9 661.9,168.7 663.2,200.1 664.5,206.9 665.8,222.2 667.1,267.5 668.4,306.9 669.7,348.8 671.0,334.0 672.3,292.7 673.6,221.2 674.9,192.7 676.2,196.8 677.5,185.4 678.8,230.8 680.1,270.7 681.4,294.6 682.7,322.0 684.0,324.0 685.3,287.2 686.6,242.1 687.9,181.1 689.2,168.4 690.5,201.6 691.8,299.2 693.1,329.9 694.4,343.5 695.7,335.5 697.0,310.7 698.3,286.4 699.6,235.1 700.9,196.8 702.3,162.9 703.6,189.2 704.9,238.1 706.2,282.7 707.5,316.1 708.8,318.9 710.1,299.5 711.4,266.4 712.7,243.9 714.0,233.1 715.3,224.3 716.6,231.3 717.9,272.6 719.2,313.8 720.5,395.5 721.8,392.8 723.1,334.0 724.4,249.1 725.7,206.1 727.0,179.8 728.3,182.8 729.6,203.7 730.9,226.6 732.2,277.0 733.5,316.1 734.8,355.6 736.1,306.5 737.4,272.3 738.7,220.8 740.0,210.3 741.3,241.5 742.6,280.1 743.9,331.8 745.2,357.7 746.5,362.5 747.8,352.8 749.1,329.6 750.4,298.8 751.7,241.1 753.0,173.7 754.3,163.2 755.6,203.9 756.9,272.0 758.2,305.3 759.5,321.6 760.8,317.1 762.2,304.6 763.5,295.4 764.8,240.3 766.1,227.8 767.4,230.6 768.7,281.0 770.0,334.2 771.3,401.7 772.6,414.6 773.9,376.5 775.2,328.3 776.5,258.2 777.8,211.5 779.1,228.7 780.4,215.1 781.7,221.5 783.0,261.9 784.3,301.9 785.6,346.7 786.9,347.3 788.2,303.5 789.5,249.0 790.8,233.5 792.1,253.4 793.4,248.7 794.7,300.1 796.0,331.0 797.3,373.0 798.6,394.4 799.9,396.5 801.2,344.0 802.5,286.9 803.8,210.5 805.1,189.6 806.4,211.0 807.7,244.3 809.0,323.6 810.3,339.7 811.6,339.7 812.9,330.7 814.2,316.3 815.5,276.8 816.8,246.0 818.1,224.8 819.4,243.6 820.7,317.0 822.1,396.9 823.4,388.9 824.7,383.1 826.0,358.1 827.3,314.7 828.6,288.4 829.9,252.1 831.2,232.5 832.5,227.7 833.8,268.7 835.1,313.0 836.4,364.5 837.7,403.8 839.0,358.1 840.3,313.0 841.6,261.8 842.9,248.6 844.2,255.3 845.5,277.3 846.8,300.5 848.1,350.8 849.4,386.9 850.7,414.5 852.0,364.0" fill="none" stroke="#d99a22" stroke-width="1.7" stroke-linejoin="round" stroke-linecap="round"/><text x="42" y="374" font-family="Arial" font-size="13" fill="#d99a22">F4</text><rect x="418" y="116" width="2" height="335" fill="#d95f43"/><text x="430" y="136" font-family="Arial" font-size="13" fill="#d95f43">stim/target</text>
</svg>