<svg xmlns="http://www.w3.org/2000/svg" width="920" height="520" viewBox="0 0 920 520">
  <rect width="920" height="520" fill="#f7faf9"/>
  <rect x="18" y="18" width="884" height="484" rx="8" fill="#ffffff" stroke="#d9e0e7"/>
  <text x="42" y="58" font-family="Arial, Microsoft YaHei, sans-serif" font-size="25" font-weight="700" fill="#17202a">静息态功率谱示例</text>
  <text x="42" y="86" font-family="Arial, Microsoft YaHei, sans-serif" font-size="14" fill="#6b7785">Welch PSD、频带积分和 Alpha 峰</text>
  <g stroke="#d9e0e7" stroke-width="1"><line x1="80" x2="840" y1="110" y2="110"/><line x1="80" x2="840" y1="196" y2="196"/><line x1="80" x2="840" y1="282" y2="282"/><line x1="80" x2="840" y1="368" y2="368"/><line x1="80" x2="840" y1="454" y2="454"/></g><line x1="80" x2="80" y1="110" y2="454" stroke="#526577"/><line x1="80" x2="840" y1="454" y2="454" stroke="#526577"/>
  <text x="425" y="496" font-family="Arial" font-size="13" fill="#6b7785">Frequency (Hz)</text>
  <text x="46" y="102" font-family="Arial" font-size="13" fill="#6b7785">Power</text><rect x="204" y="130" width="110" height="324" fill="#d9f0ee" opacity="0.85"/><text x="230" y="152" font-family="Arial" font-size="13" fill="#157a77">Alpha</text><polyline points="80.0,277.8 84.2,300.9 88.5,317.6 92.7,330.4 97.0,340.5 101.2,348.8 105.5,355.6 109.7,361.3 114.0,366.0 118.2,369.8 122.5,372.7 126.7,374.7 130.9,375.7 135.2,375.7 139.4,374.4 143.7,371.6 147.9,367.1 152.2,360.8 156.4,352.5 160.7,341.9 164.9,329.0 169.2,313.8 173.4,296.4 177.7,277.0 181.9,255.9 186.1,233.8 190.4,211.3 194.6,189.2 198.9,168.2 203.1,149.4 207.4,133.5 211.6,121.2 215.9,113.2 220.1,110.0 224.4,111.7 228.6,118.2 232.8,129.4 237.1,144.7 241.3,163.4 245.6,184.7 249.8,207.9 254.1,232.0 258.3,256.2 262.6,279.8 266.8,302.0 271.1,322.6 275.3,341.1 279.6,357.3 283.8,371.2 288.0,382.8 292.3,392.3 296.5,399.7 300.8,405.5 305.0,409.6 309.3,412.5 313.5,414.2 317.8,415.1 322.0,415.2 326.3,414.6 330.5,413.6 334.7,412.1 339.0,410.4 343.2,408.3 347.5,406.1 351.7,403.8 356.0,401.3 360.2,398.8 364.5,396.2 368.7,393.8 373.0,391.4 377.2,389.2 381.5,387.1 385.7,385.3 389.9,383.7 394.2,382.4 398.4,381.5 402.7,380.9 406.9,380.7 411.2,380.8 415.4,381.4 419.7,382.3 423.9,383.6 428.2,385.2 432.4,387.2 436.6,389.4 440.9,391.9 445.1,394.6 449.4,397.4 453.6,400.4 457.9,403.5 462.1,406.6 466.4,409.7 470.6,412.8 474.9,415.8 479.1,418.7 483.4,421.5 487.6,424.1 491.8,426.6 496.1,428.9 500.3,431.0 504.6,433.0 508.8,434.8 513.1,436.4 517.3,437.8 521.6,439.1 525.8,440.3 530.1,441.3 534.3,442.2 538.5,443.0 542.8,443.7 547.0,444.3 551.3,444.8 555.5,445.3 559.8,445.7 564.0,446.0 568.3,446.4 572.5,446.6 576.8,446.9 581.0,447.1 585.3,447.3 589.5,447.5 593.7,447.7 598.0,447.9 602.2,448.1 606.5,448.2 610.7,448.4 615.0,448.5 619.2,448.6 623.5,448.8 627.7,448.9 632.0,449.1 636.2,449.2 640.4,449.3 644.7,449.4 648.9,449.6 653.2,449.7 657.4,449.8 661.7,449.9 665.9,450.0 670.2,450.2 674.4,450.3 678.7,450.4 682.9,450.5 687.2,450.6 691.4,450.7 695.6,450.8 699.9,450.9 704.1,451.0 708.4,451.1 712.6,451.3 716.9,451.4 721.1,451.5 725.4,451.6 729.6,451.7 733.9,451.8 738.1,451.9 742.3,452.0 746.6,452.1 750.8,452.2 755.1,452.3 759.3,452.3 763.6,452.4 767.8,452.5 772.1,452.6 776.3,452.7 780.6,452.8 784.8,452.9 789.1,453.0 793.3,453.1 797.5,453.2 801.8,453.3 806.0,453.3 810.3,453.4 814.5,453.5 818.8,453.6 823.0,453.7 827.3,453.8 831.5,453.8 835.8,453.9 840.0,454.0" fill="none" stroke="#157a77" stroke-width="3" stroke-linejoin="round" stroke-linecap="round"/>
</svg>