<svg xmlns="http://www.w3.org/2000/svg" width="920" height="520" viewBox="0 0 920 520">
  <rect width="920" height="520" fill="#f7faf9"/>
  <rect x="18" y="18" width="884" height="484" rx="8" fill="#ffffff" stroke="#d9e0e7"/>
  <text x="42" y="58" font-family="Arial, Microsoft YaHei, sans-serif" font-size="25" font-weight="700" fill="#17202a">ERP 分析示例</text>
  <text x="42" y="86" font-family="Arial, Microsoft YaHei, sans-serif" font-size="14" fill="#6b7785">Oddball 条件平均、P300 峰值和潜伏期</text>
  <g stroke="#d9e0e7" stroke-width="1"><line x1="82" x2="842" y1="112" y2="112"/><line x1="82" x2="842" y1="197.5" y2="197.5"/><line x1="82" x2="842" y1="283" y2="283"/><line x1="82" x2="842" y1="368.5" y2="368.5"/><line x1="82" x2="842" y1="454" y2="454"/></g><line x1="82" x2="82" y1="112" y2="454" stroke="#526577"/><line x1="82" x2="842" y1="454" y2="454" stroke="#526577"/>
  <text x="427" y="496" font-family="Arial" font-size="13" fill="#6b7785">Time locked to stim onset (s)</text>
  <text x="48" y="104" font-family="Arial" font-size="13" fill="#6b7785">uV</text><line x1="299.36" x2="299.36" y1="112" y2="454" stroke="#17202a" stroke-dasharray="5 5"/><polyline points="82.0,397.9 84.2,397.9 86.4,397.9 88.5,397.9 90.7,397.9 92.9,397.9 95.1,397.9 97.2,397.9 99.4,397.9 101.6,397.9 103.8,397.9 106.0,397.9 108.1,397.9 110.3,397.9 112.5,397.9 114.7,397.9 116.8,397.9 119.0,397.9 121.2,397.9 123.4,397.9 125.6,397.9 127.7,397.9 129.9,397.9 132.1,397.9 134.3,397.9 136.4,397.9 138.6,397.9 140.8,397.9 143.0,397.9 145.2,397.9 147.3,397.9 149.5,397.9 151.7,397.9 153.9,397.9 156.0,397.9 158.2,397.9 160.4,397.9 162.6,397.9 164.8,397.9 166.9,397.9 169.1,397.9 171.3,397.9 173.5,397.9 175.6,397.9 177.8,397.9 180.0,397.9 182.2,397.9 184.3,397.9 186.5,397.9 188.7,397.9 190.9,397.9 193.1,397.9 195.2,397.9 197.4,397.9 199.6,397.9 201.8,397.9 203.9,397.9 206.1,397.9 208.3,397.9 210.5,397.9 212.7,397.9 214.8,397.9 217.0,397.9 219.2,397.9 221.4,397.9 223.5,397.9 225.7,397.9 227.9,397.9 230.1,397.8 232.3,397.8 234.4,397.8 236.6,397.8 238.8,397.8 241.0,397.8 243.1,397.8 245.3,397.8 247.5,397.8 249.7,397.8 251.9,397.7 254.0,397.7 256.2,397.7 258.4,397.7 260.6,397.7 262.7,397.7 264.9,397.6 267.1,397.6 269.3,397.6 271.5,397.6 273.6,397.6 275.8,397.5 278.0,397.5 280.2,397.5 282.3,397.5 284.5,397.4 286.7,397.4 288.9,397.4 291.1,397.4 293.2,397.4 295.4,397.4 297.6,397.4 299.8,397.4 301.9,397.5 304.1,397.5 306.3,397.6 308.5,397.7 310.7,397.8 312.8,397.9 315.0,398.1 317.2,398.4 319.4,398.6 321.5,398.9 323.7,399.3 325.9,399.8 328.1,400.3 330.3,400.8 332.4,401.5 334.6,402.3 336.8,403.1 339.0,404.1 341.1,405.1 343.3,406.3 345.5,407.6 347.7,409.0 349.9,410.5 352.0,412.1 354.2,413.8 356.4,415.7 358.6,417.6 360.7,419.7 362.9,421.8 365.1,424.0 367.3,426.3 369.4,428.6 371.6,430.9 373.8,433.3 376.0,435.6 378.2,437.9 380.3,440.1 382.5,442.2 384.7,444.2 386.9,446.0 389.0,447.7 391.2,449.2 393.4,450.4 395.6,451.5 397.8,452.2 399.9,452.7 402.1,452.8 404.3,452.6 406.5,452.2 408.6,451.4 410.8,450.2 413.0,448.7 415.2,446.9 417.4,444.8 419.5,442.4 421.7,439.7 423.9,436.7 426.1,433.4 428.2,429.9 430.4,426.2 432.6,422.3 434.8,418.2 437.0,414.0 439.1,409.6 441.3,405.2 443.5,400.7 445.7,396.2 447.8,391.6 450.0,387.0 452.2,382.4 454.4,377.8 456.6,373.3 458.7,368.8 460.9,364.4 463.1,360.0 465.3,355.7 467.4,351.5 469.6,347.4 471.8,343.3 474.0,339.3 476.2,335.3 478.3,331.5 480.5,327.6 482.7,323.9 484.9,320.2 487.0,316.5 489.2,312.9 491.4,309.3 493.6,305.7 495.8,302.1 497.9,298.6 500.1,295.1 502.3,291.5 504.5,288.0 506.6,284.4 508.8,280.9 511.0,277.3 513.2,273.8 515.4,270.2 517.5,266.6 519.7,263.0 521.9,259.3 524.1,255.7 526.2,252.0 528.4,248.3 530.6,244.6 532.8,240.9 535.0,237.2 537.1,233.4 539.3,229.7 541.5,226.0 543.7,222.2 545.8,218.5 548.0,214.7 550.2,211.0 552.4,207.3 554.6,203.6 556.7,199.9 558.9,196.2 561.1,192.6 563.3,189.0 565.4,185.4 567.6,181.9 569.8,178.4 572.0,174.9 574.1,171.5 576.3,168.2 578.5,164.9 580.7,161.7 582.9,158.5 585.0,155.4 587.2,152.4 589.4,149.4 591.6,146.6 593.7,143.8 595.9,141.1 598.1,138.5 600.3,136.1 602.5,133.7 604.6,131.4 606.8,129.2 609.0,127.2 611.2,125.2 613.3,123.4 615.5,121.7 617.7,120.1 619.9,118.7 622.1,117.4 624.2,116.2 626.4,115.2 628.6,114.3 630.8,113.5 632.9,112.9 635.1,112.5 637.3,112.2 639.5,112.0 641.7,112.0 643.8,112.2 646.0,112.5 648.2,112.9 650.4,113.5 652.5,114.3 654.7,115.3 656.9,116.4 659.1,117.6 661.3,119.1 663.4,120.7 665.6,122.4 667.8,124.3 670.0,126.4 672.1,128.6 674.3,131.0 676.5,133.5 678.7,136.2 680.9,139.0 683.0,142.0 685.2,145.2 687.4,148.5 689.6,151.9 691.7,155.5 693.9,159.2 696.1,163.0 698.3,167.0 700.5,171.1 702.6,175.3 704.8,179.6 707.0,184.1 709.2,188.7 711.3,193.3 713.5,198.1 715.7,203.0 717.9,207.9 720.1,213.0 722.2,218.1 724.4,223.3 726.6,228.6 728.8,233.9 730.9,239.3 733.1,244.8 735.3,250.3 737.5,255.8 739.7,261.4 741.8,267.0 744.0,272.6 746.2,278.2 748.4,283.8 750.5,289.5 752.7,295.1 754.9,300.7 757.1,306.3 759.2,311.9 761.4,317.4 763.6,322.9 765.8,328.4 768.0,333.8 770.1,339.1 772.3,344.4 774.5,349.6 776.7,354.8 778.8,359.8 781.0,364.8 783.2,369.7 785.4,374.5 787.6,379.2 789.7,383.7 791.9,388.2 794.1,392.6 796.3,396.8 798.4,400.9 800.6,404.9 802.8,408.7 805.0,412.5 807.2,416.0 809.3,419.5 811.5,422.8 813.7,426.0 815.9,429.0 818.0,431.9 820.2,434.6 822.4,437.2 824.6,439.7 826.8,441.9 828.9,444.1 831.1,446.1 833.3,448.0 835.5,449.7 837.6,451.3 839.8,452.7 842.0,454.0" fill="none" stroke="#157a77" stroke-width="3" stroke-linejoin="round" stroke-linecap="round"/><polyline points="82.0,400.7 84.2,398.8 86.4,396.8 88.5,395.0 90.7,393.1 92.9,391.2 95.1,389.4 97.2,387.7 99.4,386.0 101.6,384.3 103.8,382.7 106.0,381.2 108.1,379.8 110.3,378.4 112.5,377.1 114.7,376.0 116.8,374.9 119.0,373.9 121.2,373.0 123.4,372.2 125.6,371.6 127.7,371.0 129.9,370.6 132.1,370.3 134.3,370.1 136.4,370.0 138.6,370.1 140.8,370.2 143.0,370.5 145.2,370.9 147.3,371.4 149.5,372.1 151.7,372.8 153.9,373.7 156.0,374.6 158.2,375.7 160.4,376.8 162.6,378.1 164.8,379.4 166.9,380.8 169.1,382.3 171.3,383.9 173.5,385.5 175.6,387.2 177.8,389.0 180.0,390.8 182.2,392.6 184.3,394.4 186.5,396.3 188.7,398.2 190.9,400.1 193.1,402.1 195.2,404.0 197.4,405.9 199.6,407.7 201.8,409.6 203.9,411.4 206.1,413.2 208.3,414.9 210.5,416.5 212.7,418.1 214.8,419.7 217.0,421.1 219.2,422.5 221.4,423.8 223.5,425.0 225.7,426.1 227.9,427.1 230.1,428.0 232.3,428.8 234.4,429.5 236.6,430.1 238.8,430.5 241.0,430.8 243.1,431.1 245.3,431.2 247.5,431.1 249.7,431.0 251.9,430.7 254.0,430.3 256.2,429.8 258.4,429.2 260.6,428.5 262.7,427.6 264.9,426.7 267.1,425.6 269.3,424.5 271.5,423.2 273.6,421.9 275.8,420.5 278.0,419.0 280.2,417.4 282.3,415.8 284.5,414.1 286.7,412.3 288.9,410.5 291.1,408.7 293.2,406.8 295.4,405.0 297.6,403.1 299.8,401.2 301.9,399.3 304.1,397.4 306.3,395.6 308.5,393.8 310.7,392.1 312.8,390.4 315.0,388.8 317.2,387.3 319.4,385.9 321.5,384.6 323.7,383.4 325.9,382.4 328.1,381.5 330.3,380.7 332.4,380.2 334.6,379.8 336.8,379.6 339.0,379.6 341.1,379.9 343.3,380.3 345.5,381.0 347.7,381.9 349.9,383.0 352.0,384.4 354.2,386.0 356.4,387.8 358.6,389.9 360.7,392.2 362.9,394.6 365.1,397.3 367.3,400.2 369.4,403.2 371.6,406.3 373.8,409.5 376.0,412.9 378.2,416.2 380.3,419.7 382.5,423.1 384.7,426.4 386.9,429.7 389.0,433.0 391.2,436.0 393.4,439.0 395.6,441.7 397.8,444.2 399.9,446.5 402.1,448.5 404.3,450.2 406.5,451.6 408.6,452.7 410.8,453.5 413.0,453.9 415.2,454.0 417.4,453.8 419.5,453.2 421.7,452.3 423.9,451.1 426.1,449.6 428.2,447.8 430.4,445.7 432.6,443.3 434.8,440.7 437.0,437.9 439.1,434.9 441.3,431.7 443.5,428.4 445.7,424.9 447.8,421.2 450.0,417.5 452.2,413.6 454.4,409.7 456.6,405.7 458.7,401.6 460.9,397.5 463.1,393.3 465.3,389.0 467.4,384.7 469.6,380.4 471.8,376.0 474.0,371.5 476.2,367.1 478.3,362.5 480.5,357.9 482.7,353.3 484.9,348.6 487.0,343.8 489.2,339.0 491.4,334.1 493.6,329.2 495.8,324.2 497.9,319.1 500.1,314.0 502.3,308.8 504.5,303.6 506.6,298.3 508.8,292.9 511.0,287.5 513.2,282.1 515.4,276.6 517.5,271.1 519.7,265.5 521.9,260.0 524.1,254.4 526.2,248.8 528.4,243.3 530.6,237.7 532.8,232.2 535.0,226.7 537.1,221.2 539.3,215.8 541.5,210.5 543.7,205.2 545.8,200.0 548.0,194.9 550.2,189.9 552.4,185.0 554.6,180.2 556.7,175.5 558.9,170.9 561.1,166.5 563.3,162.2 565.4,158.1 567.6,154.1 569.8,150.3 572.0,146.6 574.1,143.1 576.3,139.8 578.5,136.7 580.7,133.7 582.9,130.9 585.0,128.3 587.2,125.9 589.4,123.7 591.6,121.7 593.7,119.9 595.9,118.2 598.1,116.8 600.3,115.6 602.5,114.5 604.6,113.6 606.8,112.9 609.0,112.4 611.2,112.1 613.3,112.0 615.5,112.0 617.7,112.3 619.9,112.6 622.1,113.2 624.2,113.9 626.4,114.8 628.6,115.8 630.8,116.9 632.9,118.2 635.1,119.7 637.3,121.2 639.5,122.9 641.7,124.8 643.8,126.7 646.0,128.7 648.2,130.8 650.4,133.1 652.5,135.4 654.7,137.8 656.9,140.3 659.1,142.9 661.3,145.5 663.4,148.2 665.6,151.0 667.8,153.8 670.0,156.7 672.1,159.6 674.3,162.6 676.5,165.6 678.7,168.6 680.9,171.7 683.0,174.8 685.2,178.0 687.4,181.2 689.6,184.3 691.7,187.6 693.9,190.8 696.1,194.1 698.3,197.3 700.5,200.6 702.6,203.9 704.8,207.3 707.0,210.6 709.2,214.0 711.3,217.3 713.5,220.7 715.7,224.1 717.9,227.6 720.1,231.0 722.2,234.5 724.4,238.0 726.6,241.5 728.8,245.0 730.9,248.6 733.1,252.1 735.3,255.7 737.5,259.4 739.7,263.0 741.8,266.7 744.0,270.5 746.2,274.2 748.4,278.0 750.5,281.8 752.7,285.7 754.9,289.6 757.1,293.5 759.2,297.4 761.4,301.4 763.6,305.5 765.8,309.5 768.0,313.6 770.1,317.7 772.3,321.9 774.5,326.1 776.7,330.3 778.8,334.5 781.0,338.8 783.2,343.1 785.4,347.4 787.6,351.7 789.7,356.0 791.9,360.3 794.1,364.7 796.3,369.0 798.4,373.3 800.6,377.6 802.8,381.9 805.0,386.2 807.2,390.5 809.3,394.8 811.5,399.0 813.7,403.1 815.9,407.3 818.0,411.4 820.2,415.4 822.4,419.3 824.6,423.2 826.8,427.1 828.9,430.8 831.1,434.5 833.3,438.1 835.5,441.6 837.6,445.0 839.8,448.2 842.0,451.4" fill="none" stroke="#d95f43" stroke-width="3" stroke-linejoin="round" stroke-linecap="round"/><text x="650" y="130" font-family="Arial" font-size="15" fill="#157a77">Target P300</text><text x="650" y="154" font-family="Arial" font-size="15" fill="#d95f43">Standard</text>
</svg>